<svg xmlns="http://www.w3.org/2000/svg" viewBox="0 0 920 210" fill="none">
  <rect width="920" height="210" fill="transparent"/>
  <g stroke="#b9aa99" stroke-width="1.2" stroke-linecap="round" stroke-linejoin="round" opacity=".42">
    <path d="M24 166h872M83 166V42h118v124M218 166V24h156v142M391 166V54h128v112M537 166V30h143v136M699 166V48h132v118"/>
    <path d="M94 59h94M94 82h94M94 105h94M94 128h94M94 151h94M235 45h122M235 69h122M235 93h122M235 117h122M235 141h122M407 75h96M407 99h96M407 123h96M407 147h96M553 52h111M553 76h111M553 100h111M553 124h111M553 148h111M715 70h99M715 94h99M715 118h99M715 142h99"/>
    <path d="M114 59v20M136 59v20M160 59v20M178 59v20M252 45v22M276 45v22M300 45v22M331 45v22M428 75v22M452 75v22M476 75v22M578 52v22M605 52v22M632 52v22M735 70v22M760 70v22M790 70v22"/>
    <path d="M356 166c14-34 45-52 90-52s77 18 92 52M385 166v-33h123v33M410 133v33M483 133v33"/>
    <path d="M73 166c-10-20-9-38 3-54 10 19 11 37-3 54ZM846 166c-12-23-8-46 12-69 10 27 7 50-12 69ZM813 166c-8-15-6-32 7-50 10 20 8 38-7 50Z"/>
    <path d="M426 111c-5-22 6-39 32-52 19 15 23 33 13 52M444 111c-2-15 3-25 16-31M652 166c11-18 28-27 51-27M663 142c7-14 19-22 35-24M276 166c9-16 22-24 40-24"/>
    <path d="M18 183c96-18 196-19 301-2 83 13 171 11 264-6 111-21 218-17 321 9"/>
  </g>
</svg>
