<svg xmlns="http://www.w3.org/2000/svg" viewBox="0 0 260 360" fill="none">
  <g stroke="#c9b6a3" stroke-width="1.4" stroke-linecap="round" stroke-linejoin="round" opacity=".46">
    <path d="M31 333c55-78 83-159 83-244M113 187c31-34 67-54 108-60M97 242c33-4 62 8 89 37M112 122c-25-21-53-31-84-29"/>
    <path d="M78 273c-22 11-38 27-48 47M143 153c20-18 41-28 64-29M131 202c21 1 40 9 58 25"/>
  </g>
  <g stroke="#d5ad98" stroke-width="1.1" fill="#fbf5ec" opacity=".7">
    <path d="M101 92c9-9 19-9 27 0-3 13-12 18-27 0Z"/>
    <path d="M110 80c11-2 18 3 22 14-9 8-18 7-22-14Z"/>
    <path d="M124 82c11 3 16 11 14 23-13 3-20-3-14-23Z"/>
    <circle cx="121" cy="96" r="4" fill="#c84736"/>
    <path d="M190 121c8-8 17-8 24 0-3 11-11 16-24 0Z"/>
    <path d="M198 110c10-2 16 3 20 12-8 8-16 6-20-12Z"/>
    <path d="M211 113c10 3 14 10 12 20-11 3-18-3-12-20Z"/>
    <circle cx="207" cy="124" r="3" fill="#c84736"/>
    <path d="M174 276c8-8 17-8 24 0-3 11-11 16-24 0Z"/>
    <path d="M182 265c10-2 16 3 20 12-8 8-16 6-20-12Z"/>
    <path d="M195 268c10 3 14 10 12 20-11 3-18-3-12-20Z"/>
    <circle cx="191" cy="279" r="3" fill="#c84736"/>
  </g>
</svg>
