<svg xmlns="http://www.w3.org/2000/svg" viewBox="0 0 1440 960" style="font-family:Arial,'Noto Sans CJK SC',sans-serif"><rect x="0" y="0" width="1440" height="960" rx="0" fill="#e9ebe3" stroke="none"/><rect x="0" y="0" width="1440" height="64" rx="0" fill="#f5f5ee" stroke="none"/><text x="34" y="40" font-size="18" fill="#2c332e" font-weight="600">NH  Archive</text><text x="385" y="39" font-size="14" fill="#416658" font-weight="400">首页</text><path d="M385 63h40" fill="none" stroke="#416658" stroke-width="2"/><text x="469" y="39" font-size="14" fill="#73796e" font-weight="400">我的库</text><text x="553" y="39" font-size="14" fill="#73796e" font-weight="400">发现</text><text x="637" y="39" font-size="14" fill="#73796e" font-weight="400">治理</text><text x="721" y="39" font-size="14" fill="#73796e" font-weight="400">词典</text><text x="805" y="39" font-size="14" fill="#73796e" font-weight="400">队列</text><text x="889" y="39" font-size="14" fill="#73796e" font-weight="400">导出</text><text x="973" y="39" font-size="14" fill="#73796e" font-weight="400">文件</text><text x="1057" y="39" font-size="14" fill="#73796e" font-weight="400">设置</text><path d="M0 64h1440" fill="none" stroke="#c7cbbf" stroke-width="1"/><text x="52" y="117" font-size="19" fill="#2c332e" font-weight="400">阅读</text><text x="52" y="148" font-size="12" fill="#73796e" font-weight="400">时间范围</text><path d="M52 178h1336" fill="none" stroke="#c7cbbf" stroke-width="1"/><text x="1060" y="252" font-size="16" fill="#2c332e" font-weight="400">阅读概览</text><path d="M1060 276h326" fill="none" stroke="#c7cbbf" stroke-width="1"/><text x="1060" y="323" font-size="12" fill="#73796e" font-weight="400">累计时长</text><text x="1060" y="381" font-size="52" fill="#2c332e" font-weight="400">—</text><text x="1170" y="379" font-size="12" fill="#73796e" font-weight="400">分钟</text><text x="1060" y="450" font-size="12" fill="#73796e" font-weight="400">活跃日期</text><text x="1250" y="450" font-size="12" fill="#73796e" font-weight="400">阅读次数</text><text x="1060" y="488" font-size="27" fill="#2c332e" font-weight="400">—</text><text x="1250" y="488" font-size="27" fill="#2c332e" font-weight="400">—</text><path d="M1060 525h326" fill="none" stroke="#c7cbbf" stroke-width="1"/><text x="1060" y="574" font-size="13" fill="#73796e" font-weight="400">选中记录后</text><text x="1060" y="604" font-size="13" fill="#73796e" font-weight="400">此处替换为日期与阅读信息</text><path d="M70 647 C220 647 232 405 405 405 S653 624 842 450 S920 334 1005 334" fill="none" stroke="#416658" stroke-width="2"/><path d="M70 607 C220 607 232 387.0 405 387.0 S653 604.0 842 426.0 S920 294 1005 294" fill="none" stroke="#aebcad" stroke-width="0.7"/><path d="M70 617 C220 617 232 391.5 405 391.5 S653 609.0 842 432.0 S920 304 1005 304" fill="none" stroke="#aebcad" stroke-width="0.7"/><path d="M70 627 C220 627 232 396.0 405 396.0 S653 614.0 842 438.0 S920 314 1005 314" fill="none" stroke="#aebcad" stroke-width="0.7"/><path d="M70 637 C220 637 232 400.5 405 400.5 S653 619.0 842 444.0 S920 324 1005 324" fill="none" stroke="#aebcad" stroke-width="0.7"/><path d="M70 647 C220 647 232 405.0 405 405.0 S653 624.0 842 450.0 S920 334 1005 334" fill="none" stroke="#aebcad" stroke-width="0.7"/><path d="M70 657 C220 657 232 409.5 405 409.5 S653 629.0 842 456.0 S920 344 1005 344" fill="none" stroke="#aebcad" stroke-width="0.7"/><path d="M70 667 C220 667 232 414.0 405 414.0 S653 634.0 842 462.0 S920 354 1005 354" fill="none" stroke="#aebcad" stroke-width="0.7"/><path d="M70 677 C220 677 232 418.5 405 418.5 S653 639.0 842 468.0 S920 364 1005 364" fill="none" stroke="#aebcad" stroke-width="0.7"/><path d="M70 687 C220 687 232 423.0 405 423.0 S653 644.0 842 474.0 S920 374 1005 374" fill="none" stroke="#aebcad" stroke-width="0.7"/><circle cx="175.81" cy="594.73" r="5" fill="#f5f5ee" stroke="#416658"/><path d="M175.81 606.73v42" fill="none" stroke="#c7cbbf" stroke-width="1"/><text x="151.81" y="670.73" font-size="10" fill="#73796e" font-weight="400">日期节点</text><circle cx="284.7" cy="457.27" r="5" fill="#f5f5ee" stroke="#416658"/><path d="M284.7 469.27v42" fill="none" stroke="#c7cbbf" stroke-width="1"/><text x="260.7" y="533.27" font-size="10" fill="#73796e" font-weight="400">日期节点</text><circle cx="405" cy="405" r="5" fill="#f5f5ee" stroke="#416658"/><path d="M405 417v42" fill="none" stroke="#c7cbbf" stroke-width="1"/><text x="381" y="481" font-size="10" fill="#73796e" font-weight="400">日期节点</text><circle cx="539.96" cy="447.61" r="5" fill="#f5f5ee" stroke="#416658"/><path d="M539.96 459.61v42" fill="none" stroke="#c7cbbf" stroke-width="1"/><text x="515.96" y="523.61" font-size="10" fill="#73796e" font-weight="400">日期节点</text><circle cx="676.36" cy="514.51" r="5" fill="#f5f5ee" stroke="#416658"/><path d="M676.36 526.51v42" fill="none" stroke="#c7cbbf" stroke-width="1"/><text x="652.36" y="590.51" font-size="10" fill="#73796e" font-weight="400">日期节点</text><circle cx="842" cy="450" r="5" fill="#f5f5ee" stroke="#416658"/><path d="M842 462v42" fill="none" stroke="#c7cbbf" stroke-width="1"/><text x="818" y="526" font-size="10" fill="#73796e" font-weight="400">日期节点</text><circle cx="962.5" cy="326.75" r="5" fill="#f5f5ee" stroke="#416658"/><path d="M962.5 338.75v42" fill="none" stroke="#c7cbbf" stroke-width="1"/><text x="938.5" y="402.75" font-size="10" fill="#73796e" font-weight="400">日期节点</text><path d="M52 750h953" fill="none" stroke="#c7cbbf" stroke-width="1"/><text x="52" y="785" font-size="11" fill="#73796e" font-weight="400">起始日期</text><text x="924" y="785" font-size="11" fill="#73796e" font-weight="400">最近日期</text><rect x="52" y="845" width="23" height="23" rx="0" fill="#416658" stroke="none"/><text x="58" y="862" font-size="12" fill="#fff" font-weight="400">1</text><text x="86" y="862" font-size="13" fill="#73796e" font-weight="400">主体是连续场景，不是图表卡片拼盘</text><rect x="720" y="845" width="23" height="23" rx="0" fill="#416658" stroke="none"/><text x="726" y="862" font-size="12" fill="#fff" font-weight="400">2</text><text x="754" y="862" font-size="13" fill="#73796e" font-weight="400">节点含义由真实数据粒度决定</text><text x="52" y="908" font-size="12" fill="#73796e" font-weight="400">结构占位稿 · 连线仅说明构图与交互关系，不代表真实阅读记录。</text></svg>