<svg xmlns="http://www.w3.org/2000/svg" viewBox="0 0 1200 1000" style="font-family:Arial,'Noto Sans CJK SC',sans-serif"><rect x="0" y="0" width="1200" height="1000" rx="0" fill="#e1e5dc" stroke="none"/><text x="42" y="52" font-size="25" fill="#2c332e" font-weight="400">我的库 · 浏览与展开</text><rect x="120" y="88" width="390" height="844" rx="0" fill="#f5f5ee" stroke="none"/><text x="140" y="122" font-size="17" fill="#2c332e" font-weight="400">NH</text><text x="452" y="122" font-size="18" fill="#2c332e" font-weight="400">☰</text><path d="M120 143h390" fill="none" stroke="#c7cbbf" stroke-width="1"/><text x="140" y="179" font-size="21" fill="#2c332e" font-weight="400">我的库</text><rect x="140" y="199" width="350" height="40" rx="0" fill="#e7eae0" stroke="none"/><text x="155" y="225" font-size="12" fill="#73796e" font-weight="400">搜索作品</text><text x="140" y="271" font-size="15" fill="#2c332e" font-weight="400">继续阅读</text><g transform="rotate(0 196.0 420)"><rect x="157" y="303" width="88" height="122" rx="0" fill="#c1c9bb" stroke="none"/><rect x="152" y="298" width="88" height="122" rx="0" fill="#d9ddd2" stroke="none"/><path d="M162 308L230 410M230 308L162 410" fill="none" stroke="#c3cabb" stroke-width="0.8"/><path d="M157 298v122" fill="none" stroke="#aeb8a5" stroke-width="1"/></g><g transform="rotate(0 314.0 412)"><rect x="275" y="295" width="88" height="122" rx="0" fill="#c1c9bb" stroke="none"/><rect x="270" y="290" width="88" height="122" rx="0" fill="#d9ddd2" stroke="none"/><path d="M280 300L348 402M348 300L280 402" fill="none" stroke="#c3cabb" stroke-width="0.8"/><path d="M275 290v122" fill="none" stroke="#aeb8a5" stroke-width="1"/><path d="M266 312v-26h26M336 416h26v-26" fill="none" stroke="#ab7b40" stroke-width="2"/></g><g transform="rotate(0 432.0 420)"><rect x="393" y="303" width="88" height="122" rx="0" fill="#c1c9bb" stroke="none"/><rect x="388" y="298" width="88" height="122" rx="0" fill="#d9ddd2" stroke="none"/><path d="M398 308L466 410M466 308L398 410" fill="none" stroke="#c3cabb" stroke-width="0.8"/><path d="M393 298v122" fill="none" stroke="#aeb8a5" stroke-width="1"/></g><path d="M152 437h88" fill="none" stroke="#c7cbbf" stroke-width="1"/><text x="152" y="457" font-size="10" fill="#73796e" font-weight="400">阅读进度</text><path d="M270 437h88" fill="none" stroke="#c7cbbf" stroke-width="1"/><text x="270" y="457" font-size="10" fill="#73796e" font-weight="400">阅读进度</text><path d="M388 437h88" fill="none" stroke="#c7cbbf" stroke-width="1"/><text x="388" y="457" font-size="10" fill="#73796e" font-weight="400">阅读进度</text><path d="M140 480h350" fill="none" stroke="#c7cbbf" stroke-width="1"/><text x="140" y="508" font-size="12" fill="#2c332e" font-weight="400">全部作品     最近添加           筛选</text><g transform="rotate(0 223.0 752)"><rect x="145" y="533" width="166" height="224" rx="0" fill="#c1c9bb" stroke="none"/><rect x="140" y="528" width="166" height="224" rx="0" fill="#d9ddd2" stroke="none"/><path d="M150 538L296 742M296 538L150 742" fill="none" stroke="#c3cabb" stroke-width="0.8"/><path d="M145 528v224" fill="none" stroke="#aeb8a5" stroke-width="1"/></g><text x="140" y="776" font-size="12" fill="#2c332e" font-weight="400">作品标题</text><text x="140" y="797" font-size="10" fill="#73796e" font-weight="400">阅读状态 / 标签</text><g transform="rotate(0 406.0 752)"><rect x="328" y="533" width="166" height="224" rx="0" fill="#c1c9bb" stroke="none"/><rect x="323" y="528" width="166" height="224" rx="0" fill="#d9ddd2" stroke="none"/><path d="M333 538L479 742M479 538L333 742" fill="none" stroke="#c3cabb" stroke-width="0.8"/><path d="M328 528v224" fill="none" stroke="#aeb8a5" stroke-width="1"/></g><text x="323" y="776" font-size="12" fill="#2c332e" font-weight="400">作品标题</text><text x="323" y="797" font-size="10" fill="#73796e" font-weight="400">阅读状态 / 标签</text><text x="120" y="969" font-size="12" fill="#73796e" font-weight="400">浏览 · 390 × 844 结构稿</text><rect x="690" y="88" width="390" height="844" rx="0" fill="#f5f5ee" stroke="none"/><text x="710" y="122" font-size="17" fill="#2c332e" font-weight="400">NH</text><text x="1022" y="122" font-size="18" fill="#2c332e" font-weight="400">☰</text><path d="M690 143h390" fill="none" stroke="#c7cbbf" stroke-width="1"/><text x="710" y="179" font-size="21" fill="#2c332e" font-weight="400">我的库</text><text x="1031" y="179" font-size="24" fill="#2c332e" font-weight="400">×</text><g transform="rotate(0 885.0 491)"><rect x="785" y="210" width="210" height="286" rx="0" fill="#c1c9bb" stroke="none"/><rect x="780" y="205" width="210" height="286" rx="0" fill="#d9ddd2" stroke="none"/><path d="M790 215L980 481M980 215L790 481" fill="none" stroke="#c3cabb" stroke-width="0.8"/><path d="M785 205v286" fill="none" stroke="#aeb8a5" stroke-width="1"/><path d="M776 227v-26h26M968 495h26v-26" fill="none" stroke="#ab7b40" stroke-width="2"/></g><text x="714" y="536" font-size="22" fill="#2c332e" font-weight="400">所选作品标题</text><text x="714" y="575" font-size="12" fill="#73796e" font-weight="400">作者 / 语言 / 页数</text><path d="M714 600h342" fill="none" stroke="#c7cbbf" stroke-width="1"/><text x="714" y="636" font-size="14" fill="#2c332e" font-weight="400">作品信息与标签</text><rect x="714" y="825" width="342" height="48" rx="0" fill="#416658" stroke="none"/><text x="857" y="855" font-size="14" fill="#f5f5ee" font-weight="400">继续阅读</text><text x="690" y="969" font-size="12" fill="#73796e" font-weight="400">作品详情 · 390 × 844 结构稿</text></svg>